<svg width="32" height="32" viewBox="0 0 32 32" fill="none" xmlns="http://www.w3.org/2000/svg">
<path d="M13.6401 5.5745L13.7801 5.33023C13.9001 5.10631 14.2201 5.20809 14.2201 5.45237V23.6305V26.9078C14.2201 27.1114 13.9801 27.2335 13.8201 27.091L13.6401 26.9282L12.0801 25.544L11.5001 25.0351L9.94008 23.6508L9.36008 23.1419L7.80008 21.7577L7.22008 21.2488L5.66008 19.8646L5.56008 19.7832L5.16008 19.4167C5.10008 19.376 5.08008 19.315 5.08008 19.2539V16.058C5.08008 15.8544 5.32008 15.7323 5.48008 15.8748L5.66008 16.0376L6.80008 17.0351C6.92008 17.1368 7.08008 17.0961 7.16008 16.974L7.22008 16.8722L7.80008 15.834L9.36008 13.086L9.94008 12.0681L11.5001 9.32005L12.0801 8.28188L13.6401 5.5745ZM24.5201 13.9409L24.4201 14.0427L22.9601 11.4778L22.3801 10.46L20.8201 7.71191L20.2401 6.67374L18.6801 3.92565L18.1001 2.90784L16.5401 0.159745C16.3801 -0.125242 15.9601 -0.00310473 15.9601 0.322595V21.5745V24.9944C15.9601 25.259 16.2801 25.4218 16.4801 25.2386L26.7001 16.1801V12.1699C26.7001 12.1089 26.6201 12.0681 26.5801 12.1089L24.5201 13.9409ZM8.42008 28.516C7.74008 28.516 7.18008 29.086 7.18008 29.7781V31.8137H23.0401V28.5363H8.42008" fill="url(#paint0_linear_4667_1068)"/>
<defs>
<linearGradient id="paint0_linear_4667_1068" x1="5.00005" y1="15.7973" x2="26.8179" y2="15.7973" gradientUnits="userSpaceOnUse">
<stop stop-color="#EE3524"/>
<stop offset="1" stop-color="#F68A21"/>
</linearGradient>
</defs>
</svg>
